<svg width="45" height="45" viewBox="0 0 45 45" fill="none" xmlns="http://www.w3.org/2000/svg">
<path d="M22.5 0C10.08 0 0 10.08 0 22.5C0 34.92 10.08 45 22.5 45C34.92 45 45 34.92 45 22.5C45 10.08 34.92 0 22.5 0ZM11.4075 36.63C12.375 34.605 18.27 32.625 22.5 32.625C26.73 32.625 32.6475 34.605 33.5925 36.63C30.5325 39.06 26.685 40.5 22.5 40.5C18.315 40.5 14.4675 39.06 11.4075 36.63ZM36.81 33.3675C33.5925 29.4525 25.785 28.125 22.5 28.125C19.215 28.125 11.4075 29.4525 8.19 33.3675C5.895 30.3525 4.5 26.595 4.5 22.5C4.5 12.5775 12.5775 4.5 22.5 4.5C32.4225 4.5 40.5 12.5775 40.5 22.5C40.5 26.595 39.105 30.3525 36.81 33.3675ZM22.5 9C18.135 9 14.625 12.51 14.625 16.875C14.625 21.24 18.135 24.75 22.5 24.75C26.865 24.75 30.375 21.24 30.375 16.875C30.375 12.51 26.865 9 22.5 9ZM22.5 20.25C20.6325 20.25 19.125 18.7425 19.125 16.875C19.125 15.0075 20.6325 13.5 22.5 13.5C24.3675 13.5 25.875 15.0075 25.875 16.875C25.875 18.7425 24.3675 20.25 22.5 20.25Z" fill="#49454F"/>
</svg>
